<svg width="12" height="12" viewBox="0 0 37 18" fill="none" xmlns="http://www.w3.org/2000/svg">
    <path
        d="M4.51 17.3102C6.4275 17.3102 7.5125 16.4647 8.025 15.5598H8.1725V17.125H11.2125V8.85759C11.2125 5.73684 8.845 4.62297 5.9375 4.62297C2.3875 4.62297 0.875 6.24747 0.725 8.26622H3.765C3.925 7.49909 4.5475 6.95522 5.865 6.95522C7.1825 6.95522 8.025 7.54659 8.025 8.78634V9.88834H4.865C1.8625 9.88834 0.25 11.349 0.25 13.553C0.25 15.8733 1.9825 17.3102 4.51 17.3102ZM5.56 15.0611C4.46 15.0611 3.4475 14.503 3.4475 13.3558C3.4475 12.4177 4.12 11.7313 5.5475 11.7313H8.025V13.0091C8.025 14.2037 6.915 15.0611 5.56 15.0611ZM19.5425 17.2865C22.5825 17.2865 24.4125 15.2226 24.4125 11.8002V10.133C24.4125 6.71297 22.595 4.65859 19.59 4.65859C17.735 4.65859 16.27 5.48272 15.8425 6.76997H15.685V0.459595H12.46V17.125H15.635V15.2463H15.795C16.32 16.5098 17.735 17.2888 19.5425 17.2888V17.2865ZM18.4675 14.8521C16.8175 14.8521 15.685 13.6218 15.685 11.8121V10.285C15.685 8.32559 16.735 7.09534 18.43 7.09534C20.14 7.09534 21.1175 8.32559 21.1175 10.4583V11.5271C21.1175 13.6361 20.1525 14.8521 18.4675 14.8521ZM25.5525 11.6981C25.5525 15.1893 27.7275 17.3458 31.315 17.3458C34.855 17.3458 36.6625 15.5005 36.71 13.1587H33.745C33.595 14.1681 32.9625 14.8972 31.4125 14.8972C29.7625 14.8972 28.7875 13.6812 28.7875 11.6862V10.2018C28.7875 8.2781 29.715 7.04784 31.4 7.04784C32.9875 7.04784 33.5975 8.05722 33.695 8.89084H36.6625C36.6125 6.54909 34.695 4.6016 31.3125 4.6016C27.7875 4.6016 25.5525 6.78184 25.5525 10.1543V11.6981Z"
        fill="black" />
</svg>