<svg width="198" height="198" viewBox="0 0 198 198" fill="none" xmlns="http://www.w3.org/2000/svg">
    <path
        d="M99 0C44.3242 0 0 44.3242 0 99C0 153.679 44.3242 198 99 198C153.679 198 198 153.679 198 99C198 44.3242 153.679 0 99 0ZM99 185.82C51.2356 185.82 12.375 146.764 12.375 98.9996C12.375 51.2352 51.2356 12.3746 99 12.3746C146.764 12.3746 185.625 51.2354 185.625 98.9996C185.625 146.764 146.764 185.82 99 185.82ZM134 64.0004C131.583 61.5842 127.667 61.5842 125.25 64.0004L99 90.2509L72.7495 64.0004C70.3333 61.5842 66.4166 61.5842 63.9973 64.0004C61.5811 66.4166 61.5811 70.3333 63.9973 72.7495L90.2478 99L63.9973 125.25C61.5811 127.664 61.5811 131.587 63.9973 134C66.4135 136.416 70.3302 136.416 72.7495 134L99 107.749L125.25 134C127.667 136.416 131.583 136.416 134 134C136.416 131.587 136.416 127.664 134 125.25L107.749 99L134 72.7495C136.419 70.3302 136.419 66.4135 134 64.0004Z"
        fill="black" />
</svg>
    